<svg width="167" height="40" viewBox="0 0 167 40" fill="none" xmlns="http://www.w3.org/2000/svg">
<g clip-path="url(#clip0_3267_2621)">
<path d="M166.221 6.08194C166.143 5.50495 165.984 4.98026 165.783 4.48826C165.762 4.43432 165.744 4.38039 165.721 4.32645C165.631 4.12213 165.527 3.93416 165.417 3.74782C165.378 3.68244 165.344 3.61542 165.301 3.55331C164.515 2.33395 163.31 1.54937 161.878 1.37448C161.695 1.33525 161.518 1.28294 161.325 1.25842C156.81 0.655281 152.048 0.53596 147.98 0.5C147.565 0.5 34.9746 0.5 34.5528 0.504904C30.8336 0.542498 25.9766 0.663454 21.4172 1.27804C20.8319 1.3565 20.299 1.51832 19.802 1.72263C19.7595 1.73898 19.717 1.75369 19.6745 1.77167C19.4521 1.86974 19.2445 1.98252 19.0418 2.10348C18.9944 2.1329 18.9453 2.15742 18.8996 2.18684C17.6686 2.97469 16.8773 4.18588 16.7057 5.62917C16.6664 5.8106 16.6157 5.98386 16.5912 6.17347C16.4997 6.85344 16.4228 7.53994 16.3525 8.22808C14.3761 8.22808 13.2039 8.22808 13.1679 8.22808C10.9659 8.24933 8.09025 8.32288 5.39119 8.68575C5.04461 8.73315 4.7291 8.82795 4.43483 8.94891C4.41031 8.95872 4.38415 8.96689 4.35963 8.97833C4.22721 9.03554 4.1046 9.10256 3.98526 9.17448C3.95747 9.19246 3.92804 9.20553 3.90189 9.22351C3.17276 9.68935 2.70357 10.4069 2.60222 11.2618C2.57933 11.3697 2.5499 11.4726 2.53356 11.5838C2.17553 14.2579 2.10687 17.0758 2.08398 19.4835C2.08398 19.7287 2.08398 19.9837 2.08725 20.2337C2.10851 22.4355 2.18207 25.3106 2.545 28.0092C2.58587 28.3165 2.66924 28.596 2.76897 28.8624C2.79349 28.9344 2.82128 29.0063 2.85071 29.0749C2.87196 29.1223 2.89158 29.1681 2.91446 29.2139C2.96841 29.3185 3.02727 29.4198 3.09429 29.5179C3.54713 30.2158 4.23212 30.6719 5.04625 30.7896C5.1754 30.819 5.30618 30.8468 5.4435 30.8648C8.12949 31.226 11.01 31.293 13.2186 31.311C13.2546 31.311 14.3908 31.311 16.3149 31.311C16.3983 32.1822 16.4915 33.0518 16.6076 33.9115C16.6779 34.4297 16.8168 34.9037 16.9868 35.3532C17.0277 35.4758 17.0735 35.5951 17.1258 35.7128C17.1618 35.7912 17.1961 35.8713 17.2353 35.9482C17.3253 36.1263 17.4266 36.2963 17.5394 36.4614C18.3061 37.6399 19.4603 38.4098 20.8368 38.6092C21.0542 38.6598 21.2766 38.7056 21.5071 38.735C26.0437 39.3464 30.9088 39.4575 34.6394 39.4886C35.0629 39.4935 147.653 39.4935 148.07 39.4935C152.115 39.451 156.864 39.3284 161.415 38.7154C161.915 38.6484 162.373 38.5144 162.81 38.3542C162.957 38.3052 163.101 38.2496 163.243 38.1875C163.307 38.158 163.372 38.1303 163.434 38.0992C163.627 38.0028 163.81 37.8933 163.987 37.7707C165.149 37.0057 165.911 35.8583 166.112 34.4951C166.164 34.276 166.208 34.0521 166.239 33.82C166.851 29.2842 166.962 24.4198 166.993 20.6898C166.998 20.2664 166.998 19.8382 166.998 19.4214C166.955 15.3775 166.833 10.6292 166.22 6.07867L166.221 6.08194Z" fill="#E01027"/>
<path d="M22.2985 10.7617C21.5596 10.7617 20.922 11.2308 20.6474 11.9059L16.4492 19.3692L18.4911 23.1155L20.4479 19.7582L20.3956 27.1349C20.3875 28.1515 21.1901 28.9851 22.1661 28.9851C23.1421 28.9851 23.9448 28.1515 23.953 27.1349L24.0592 12.6087C24.0674 11.5937 23.2729 10.7634 22.2969 10.7634" fill="white"/>
<path d="M15.6306 26.2751C15.611 26.2342 15.5897 26.1966 15.5701 26.1574L7.61677 11.7342C7.59715 11.7032 7.5857 11.6754 7.56445 11.6427C7.55628 11.6345 7.55628 11.6264 7.54483 11.6149C7.23095 11.1082 6.68329 10.7666 6.05716 10.7666C5.07955 10.7666 4.2785 11.5953 4.27032 12.6153L4.16406 27.1969C4.18695 28.1973 4.97002 28.9868 5.92638 28.9868C6.88274 28.9868 7.67562 28.194 7.71322 27.1969L7.7688 19.5473L12.5065 28.0469C12.5065 28.0469 12.5179 28.0649 12.5179 28.0731L12.5457 28.1254C12.8514 28.6435 13.4072 28.9835 14.0464 28.9835C15.0241 28.9835 15.8251 28.1531 15.8316 27.1381C15.8349 26.8439 15.7679 26.5578 15.6486 26.3045L15.6289 26.2751H15.6306Z" fill="white"/>
<path d="M31.1724 8.54852C31.1087 8.07777 30.9795 7.64952 30.8144 7.24906C30.798 7.20493 30.7817 7.1608 30.7637 7.11666C30.6901 6.94994 30.6051 6.7963 30.5152 6.64428C30.4825 6.59198 30.4547 6.5364 30.4204 6.48573C29.7796 5.49194 28.797 4.85283 27.6282 4.709C27.4778 4.6763 27.3339 4.63544 27.177 4.61419C23.4937 4.1222 19.6111 4.02576 16.2957 3.99634C15.9573 3.99634 15.6075 3.99634 15.2625 4.00124C12.23 4.0323 8.26883 4.13037 4.55129 4.63054C4.07393 4.69428 3.64071 4.82668 3.23364 4.9934C3.19931 5.00648 3.16334 5.01956 3.12901 5.03427C2.94755 5.11436 2.77753 5.20589 2.61405 5.30397C2.57645 5.32685 2.53558 5.3481 2.49798 5.37262C1.49421 6.01499 0.848463 7.00225 0.709504 8.17911C0.676808 8.32622 0.635938 8.46842 0.616321 8.62371C0.12588 12.3063 0.0294264 16.1883 0 19.5032C0 19.8415 0 20.1913 0.00490441 20.5362C0.0359657 23.5683 0.134054 27.5287 0.634303 31.2457C0.691522 31.6674 0.804323 32.0548 0.943281 32.4209C0.977612 32.5206 1.01358 32.6187 1.05608 32.7151C1.08551 32.7789 1.1133 32.8442 1.14436 32.9064C1.21793 33.0518 1.3013 33.1908 1.39285 33.3248C2.01735 34.2859 2.95899 34.9136 4.0821 35.077C4.2603 35.1179 4.44012 35.1555 4.62813 35.18C8.32768 35.6785 12.2954 35.7684 15.3377 35.7946C15.6827 35.7978 16.0325 35.7978 16.3725 35.7978C19.6699 35.7635 23.5428 35.6638 27.2538 35.1636C27.6609 35.1081 28.0352 35.0002 28.3916 34.8694C28.5126 34.8302 28.6287 34.7844 28.7447 34.7338C28.797 34.7092 28.8494 34.6864 28.9017 34.6618C29.0586 34.5834 29.209 34.4935 29.3529 34.3938C30.2994 33.771 30.9207 32.8344 31.0858 31.7229C31.1283 31.5431 31.1642 31.3617 31.1904 31.1721C31.689 27.4732 31.7789 23.5061 31.8051 20.4643C31.8084 20.1194 31.8084 19.7696 31.8084 19.4296C31.774 16.1328 31.6743 12.2605 31.1741 8.55015L31.1724 8.54852ZM28.5159 27.1577C28.5044 28.4686 27.4729 29.5327 26.2141 29.5359C25.3411 29.5359 24.5744 29.008 24.1951 28.243C23.8093 29.008 23.0393 29.5359 22.163 29.5359C21.2868 29.5359 20.5119 29.008 20.1391 28.2463C19.7533 29.008 18.985 29.5359 18.0989 29.5359C17.2128 29.5359 16.4559 29.008 16.0832 28.2463C15.6892 29.008 14.9208 29.5359 14.043 29.5359C13.1553 29.5392 12.3918 29.0113 12.0191 28.2463C11.6333 29.0113 10.8649 29.5392 9.98047 29.5392C9.09604 29.5392 8.33749 29.0113 7.96312 28.2479C7.58221 29.0096 6.80895 29.5392 5.92453 29.5392C4.67063 29.5392 3.65051 28.4751 3.65869 27.1659L3.76659 12.6398C3.77476 11.3305 4.80959 10.2615 6.06348 10.2615C6.95282 10.2615 7.71463 10.7895 8.08737 11.5512C8.47318 10.7895 9.24317 10.2615 10.1194 10.2615C11.0039 10.2566 11.7706 10.7862 12.1433 11.5512H12.1515L16.1568 18.8559L20.2519 11.5675C20.6361 10.7944 21.4061 10.2566 22.3036 10.2566C23.1799 10.2533 23.9433 10.7813 24.3161 11.5479C24.7117 10.7829 25.4833 10.2533 26.3596 10.2533C27.6135 10.2533 28.6336 11.3223 28.6221 12.6316L28.5191 27.1577H28.5159Z" fill="white"/>
<path d="M159.174 8.84916C158.582 8.18227 157.713 7.8145 156.722 7.8145C155.045 7.8145 153.675 8.78542 152.967 10.4723L147.557 22.8816L145.352 10.6226C145.043 8.95051 143.707 7.78345 142.103 7.78345H142.023C140.266 7.82104 138.739 9.30193 138.477 11.198L134.73 31.7327H139.743L141.932 19.8774L144.023 31.7327H148.952L154.088 19.915L152.994 31.7327H158.27L159.957 11.4039C160.024 10.3905 159.754 9.50788 159.174 8.84916Z" fill="white"/>
<path d="M130.281 7.8145C128.605 7.8145 127.235 8.78542 126.526 10.4723L121.118 22.8816L118.914 10.6226C118.603 8.95051 117.268 7.78345 115.664 7.78345H115.584C113.826 7.82104 112.3 9.30193 112.038 11.198L108.291 31.7327H113.302L115.491 19.8774L117.583 31.7327H122.511L127.649 19.915L126.555 31.7327H131.829L133.514 11.4039C133.585 10.3905 133.313 9.50788 132.731 8.84916C132.141 8.18227 131.27 7.8145 130.279 7.8145" fill="white"/>
<path d="M103.588 19.5325L103.706 19.5815H104.896L105.502 15.2516L104.987 15.0931C103.384 14.5994 102.094 14.2464 100.055 14.2153H99.9619C97.0993 14.2153 93.8036 15.7453 93.3376 19.0961C93.0172 21.1784 93.7954 23.0778 95.3141 23.9359C96.1348 24.4034 96.9816 24.7189 97.8775 25.0523C98.2551 25.1912 98.6377 25.3351 99.0284 25.4936L99.1297 25.5345C99.5009 25.68 100.372 26.0183 100.326 26.3174C100.294 26.5839 100.194 27.3946 97.8383 27.4616C96.5337 27.4616 94.7714 27.1184 93.7316 26.6639L93.6123 26.6116H92.4401L91.8418 31.0837L92.342 31.2488C94.052 31.8078 95.5969 32.071 97.2023 32.071C100.717 32.071 104.675 30.6261 105.247 26.579C105.607 24.1827 104.856 22.3537 103.146 21.4383C102.314 20.9643 101.325 20.6129 100.369 20.2713C99.9733 20.1307 99.5859 19.9934 99.1886 19.8398C98.6998 19.6747 98.3548 19.4295 98.247 19.2971C98.4023 19.0797 99.1526 18.8541 100.047 18.8541C101.162 18.8541 102.618 19.1353 103.589 19.5357" fill="white"/>
<path d="M83.3387 14.2139C81.5159 14.2139 79.8124 14.6323 78.3591 15.0262L77.9553 15.1357L77.3145 19.7942H78.6027L78.7269 19.737C79.9105 19.1992 81.5077 18.851 82.796 18.851C83.4711 18.851 84.7218 19.1175 85.2596 19.6879C85.2923 19.7206 85.3185 19.7533 85.343 19.786L80.7116 20.4463C78.1989 20.7847 75.2988 22.7167 74.8672 26.1721C74.6922 27.8116 75.1238 29.3039 76.0884 30.3778C77.0856 31.486 78.5961 32.0973 80.3405 32.0973C81.5993 32.0973 82.9088 31.7132 84.0417 31.0365L83.955 31.7312H88.9167L90.509 20.2943C90.6921 18.668 90.3193 17.3211 89.3989 16.2914C87.8638 14.5751 85.2563 14.2139 83.3403 14.2139M84.8378 24.1486L84.5109 26.5644C83.4237 27.1316 82.3971 27.4291 81.5241 27.4291C80.9078 27.4291 80.4386 27.282 80.2097 27.0155C80.0348 26.8145 79.9759 26.5121 80.0315 26.1198C80.1525 25.3205 80.6789 24.8367 81.6467 24.6438C82.3856 24.4967 83.1229 24.3937 83.8357 24.294C84.1659 24.2466 84.5027 24.1992 84.8395 24.1469" fill="white"/>
<path d="M66.2081 19.155H68.1813L66.6478 28.9998C66.3715 30.9123 65.6408 31.5252 63.6398 31.5252H63.0905L62.4268 36.2245H63.1559C68.3284 36.2245 71.0781 33.7809 71.8056 28.5389L73.9652 14.5457H66.8734L66.2064 19.1534L66.2081 19.155Z" fill="white"/>
<path d="M70.025 8.18555L69.2354 12.2882H74.4013L75.1893 8.18555H70.025Z" fill="white"/>
<path d="M62.9643 16.4711C61.6777 14.9935 59.8385 14.2122 57.6463 14.2122C52.6683 14.2122 48.9867 17.5744 48.2707 22.7755C47.8652 25.5934 48.4521 28.0812 49.9251 29.7811C51.2199 31.2767 53.0835 32.0678 55.315 32.0678C60.2456 32.0678 63.9141 28.717 64.6612 23.529C65.0535 20.6833 64.4519 18.1775 62.9643 16.4711ZM59.4413 23.0501C59.0685 25.6735 57.6266 27.3669 55.7711 27.3669C55.0763 27.3669 54.5221 27.1332 54.12 26.6706C53.5004 25.9579 53.2764 24.7337 53.4906 23.2233C53.8355 20.6048 55.266 18.9114 57.1329 18.9114C57.8228 18.9114 58.3787 19.1452 58.7824 19.6045C59.4069 20.3171 59.6424 21.543 59.4413 23.0501Z" fill="white"/>
<path d="M44.9355 26.7622C44.2652 27.0842 43.5573 27.3997 42.9148 27.3997L42.8184 27.3964C42.3198 27.3964 41.9438 27.282 41.7656 27.0711C41.6168 26.8979 41.5694 26.6183 41.6299 26.2342L44.154 8.22656H39.0289L36.6225 25.3875C36.2988 27.6187 36.6388 29.3317 37.6295 30.4775C38.5434 31.5318 39.9722 32.0679 41.88 32.0679C43.1977 32.0679 44.154 31.7541 45.3671 31.3601L45.8166 31.2147L46.4182 26.7001H45.0662L44.9371 26.7638L44.9355 26.7622Z" fill="white"/>
</g>
<defs>
<clipPath id="clip0_3267_2621">
<rect width="167" height="39" fill="white" transform="translate(0 0.5)"/>
</clipPath>
</defs>
</svg>
